<mxfile host="app.diagrams.net" modified="2020-10-26T11:41:27.350Z" agent="5.0 (X11)" etag="DaeymHkcS4nxzRDgQuZ5" version="13.8.0" type="github">
  <diagram id="JZuw75PAnl-jE2VVtzF4" name="Page-1">
    <mxGraphModel dx="2133" dy="1270" grid="1" gridSize="10" guides="1" tooltips="1" connect="1" arrows="1" fold="1" page="1" pageScale="1" pageWidth="850" pageHeight="1100" math="0" shadow="0">
      <root>
        <mxCell id="0" />
        <mxCell id="1" parent="0" />
        <mxCell id="WwLEg-Nevc-FDdVer2Dc-2" value="Rumah" style="swimlane;html=1;childLayout=stackLayout;resizeParent=1;resizeParentMax=0;horizontal=0;startSize=20;horizontalStack=0;fillColor=#f5f5f5;strokeColor=#666666;fontColor=#333333;" vertex="1" parent="1">
          <mxGeometry x="40" y="120" width="990" height="520" as="geometry" />
        </mxCell>
        <mxCell id="WwLEg-Nevc-FDdVer2Dc-3" value="&lt;div&gt;Aku&lt;/div&gt;" style="swimlane;html=1;startSize=20;horizontal=0;fillColor=#f5f5f5;strokeColor=#666666;fontColor=#333333;" vertex="1" parent="WwLEg-Nevc-FDdVer2Dc-2">
          <mxGeometry x="20" width="970" height="360" as="geometry" />
        </mxCell>
        <mxCell id="WwLEg-Nevc-FDdVer2Dc-29" style="edgeStyle=orthogonalEdgeStyle;rounded=0;orthogonalLoop=1;jettySize=auto;html=1;entryX=0;entryY=0.5;entryDx=0;entryDy=0;exitX=1.008;exitY=0.56;exitDx=0;exitDy=0;exitPerimeter=0;" edge="1" parent="WwLEg-Nevc-FDdVer2Dc-3" source="WwLEg-Nevc-FDdVer2Dc-1" target="WwLEg-Nevc-FDdVer2Dc-20">
          <mxGeometry relative="1" as="geometry" />
        </mxCell>
        <mxCell id="WwLEg-Nevc-FDdVer2Dc-67" style="edgeStyle=orthogonalEdgeStyle;rounded=0;orthogonalLoop=1;jettySize=auto;html=1;" edge="1" parent="WwLEg-Nevc-FDdVer2Dc-3" source="WwLEg-Nevc-FDdVer2Dc-57" target="WwLEg-Nevc-FDdVer2Dc-9">
          <mxGeometry relative="1" as="geometry" />
        </mxCell>
        <mxCell id="WwLEg-Nevc-FDdVer2Dc-57" value="Menonton anime" style="shape=ext;rounded=1;html=1;whiteSpace=wrap;fillColor=#dae8fc;strokeColor=#6c8ebf;" vertex="1" parent="WwLEg-Nevc-FDdVer2Dc-3">
          <mxGeometry x="780" y="5" width="100" height="60" as="geometry" />
        </mxCell>
        <mxCell id="WwLEg-Nevc-FDdVer2Dc-64" style="edgeStyle=orthogonalEdgeStyle;rounded=0;orthogonalLoop=1;jettySize=auto;html=1;" edge="1" parent="WwLEg-Nevc-FDdVer2Dc-3" source="WwLEg-Nevc-FDdVer2Dc-51" target="WwLEg-Nevc-FDdVer2Dc-57">
          <mxGeometry relative="1" as="geometry" />
        </mxCell>
        <mxCell id="WwLEg-Nevc-FDdVer2Dc-66" style="edgeStyle=orthogonalEdgeStyle;rounded=0;orthogonalLoop=1;jettySize=auto;html=1;" edge="1" parent="WwLEg-Nevc-FDdVer2Dc-3" source="WwLEg-Nevc-FDdVer2Dc-51" target="WwLEg-Nevc-FDdVer2Dc-59">
          <mxGeometry relative="1" as="geometry">
            <Array as="points">
              <mxPoint x="735" y="70" />
              <mxPoint x="770" y="70" />
            </Array>
          </mxGeometry>
        </mxCell>
        <mxCell id="WwLEg-Nevc-FDdVer2Dc-51" value="" style="shape=mxgraph.bpmn.shape;html=1;verticalLabelPosition=bottom;labelBackgroundColor=#ffffff;verticalAlign=top;align=center;perimeter=rhombusPerimeter;background=gateway;outlineConnect=0;outline=none;symbol=exclusiveGw;fillColor=#fff2cc;strokeColor=#d6b656;" vertex="1" parent="WwLEg-Nevc-FDdVer2Dc-3">
          <mxGeometry x="710" y="10" width="50" height="50" as="geometry" />
        </mxCell>
        <mxCell id="WwLEg-Nevc-FDdVer2Dc-1" value="Sarapan" style="shape=ext;rounded=1;html=1;whiteSpace=wrap;fillColor=#dae8fc;strokeColor=#6c8ebf;" vertex="1" parent="WwLEg-Nevc-FDdVer2Dc-3">
          <mxGeometry x="90" y="20" width="100" height="60" as="geometry" />
        </mxCell>
        <mxCell id="WwLEg-Nevc-FDdVer2Dc-35" style="edgeStyle=orthogonalEdgeStyle;rounded=0;orthogonalLoop=1;jettySize=auto;html=1;" edge="1" parent="WwLEg-Nevc-FDdVer2Dc-3" source="WwLEg-Nevc-FDdVer2Dc-22" target="WwLEg-Nevc-FDdVer2Dc-23">
          <mxGeometry relative="1" as="geometry" />
        </mxCell>
        <mxCell id="WwLEg-Nevc-FDdVer2Dc-22" value="Mandi" style="shape=ext;rounded=1;html=1;whiteSpace=wrap;fillColor=#dae8fc;strokeColor=#6c8ebf;" vertex="1" parent="WwLEg-Nevc-FDdVer2Dc-3">
          <mxGeometry x="280" y="20" width="100" height="60" as="geometry" />
        </mxCell>
        <mxCell id="WwLEg-Nevc-FDdVer2Dc-38" style="edgeStyle=orthogonalEdgeStyle;rounded=0;orthogonalLoop=1;jettySize=auto;html=1;exitX=1;exitY=0.5;exitDx=0;exitDy=0;" edge="1" parent="WwLEg-Nevc-FDdVer2Dc-3" source="WwLEg-Nevc-FDdVer2Dc-23" target="WwLEg-Nevc-FDdVer2Dc-25">
          <mxGeometry relative="1" as="geometry">
            <Array as="points">
              <mxPoint x="550" y="50" />
              <mxPoint x="550" y="160" />
              <mxPoint x="340" y="160" />
            </Array>
          </mxGeometry>
        </mxCell>
        <mxCell id="WwLEg-Nevc-FDdVer2Dc-23" value="Buka laptop" style="shape=ext;rounded=1;html=1;whiteSpace=wrap;fillColor=#dae8fc;strokeColor=#6c8ebf;" vertex="1" parent="WwLEg-Nevc-FDdVer2Dc-3">
          <mxGeometry x="430" y="20" width="100" height="60" as="geometry" />
        </mxCell>
        <mxCell id="WwLEg-Nevc-FDdVer2Dc-32" style="edgeStyle=orthogonalEdgeStyle;rounded=0;orthogonalLoop=1;jettySize=auto;html=1;entryX=0;entryY=0.5;entryDx=0;entryDy=0;" edge="1" parent="WwLEg-Nevc-FDdVer2Dc-3" source="WwLEg-Nevc-FDdVer2Dc-20" target="WwLEg-Nevc-FDdVer2Dc-22">
          <mxGeometry relative="1" as="geometry" />
        </mxCell>
        <mxCell id="WwLEg-Nevc-FDdVer2Dc-54" style="edgeStyle=orthogonalEdgeStyle;rounded=0;orthogonalLoop=1;jettySize=auto;html=1;" edge="1" parent="WwLEg-Nevc-FDdVer2Dc-3" source="WwLEg-Nevc-FDdVer2Dc-50" target="WwLEg-Nevc-FDdVer2Dc-51">
          <mxGeometry relative="1" as="geometry">
            <Array as="points">
              <mxPoint x="690" y="70" />
              <mxPoint x="690" y="35" />
            </Array>
          </mxGeometry>
        </mxCell>
        <mxCell id="WwLEg-Nevc-FDdVer2Dc-50" value="Ngoding &amp;amp; belajar hal baru" style="shape=ext;rounded=1;html=1;whiteSpace=wrap;fillColor=#dae8fc;strokeColor=#6c8ebf;" vertex="1" parent="WwLEg-Nevc-FDdVer2Dc-3">
          <mxGeometry x="580" y="40" width="100" height="60" as="geometry" />
        </mxCell>
        <mxCell id="WwLEg-Nevc-FDdVer2Dc-85" value="" style="shape=plus;html=1;outlineConnect=0;" vertex="1" parent="WwLEg-Nevc-FDdVer2Dc-3">
          <mxGeometry x="323" y="66" width="14" height="14" as="geometry" />
        </mxCell>
        <mxCell id="WwLEg-Nevc-FDdVer2Dc-94" value="" style="shape=plus;html=1;outlineConnect=0;" vertex="1" parent="WwLEg-Nevc-FDdVer2Dc-3">
          <mxGeometry x="473" y="66" width="14" height="14" as="geometry" />
        </mxCell>
        <mxCell id="WwLEg-Nevc-FDdVer2Dc-93" value="" style="shape=plus;html=1;outlineConnect=0;" vertex="1" parent="WwLEg-Nevc-FDdVer2Dc-3">
          <mxGeometry x="623" y="86" width="14" height="14" as="geometry" />
        </mxCell>
        <mxCell id="WwLEg-Nevc-FDdVer2Dc-59" value="Mengerjakan tugas" style="shape=ext;rounded=1;html=1;whiteSpace=wrap;fillColor=#dae8fc;strokeColor=#6c8ebf;" vertex="1" parent="WwLEg-Nevc-FDdVer2Dc-3">
          <mxGeometry x="720" y="90" width="100" height="60" as="geometry" />
        </mxCell>
        <mxCell id="WwLEg-Nevc-FDdVer2Dc-21" value="Menjemur Pakaian" style="shape=ext;rounded=1;html=1;whiteSpace=wrap;fillColor=#dae8fc;strokeColor=#6c8ebf;" vertex="1" parent="WwLEg-Nevc-FDdVer2Dc-3">
          <mxGeometry x="310" y="90" width="100" height="60" as="geometry" />
        </mxCell>
        <mxCell id="WwLEg-Nevc-FDdVer2Dc-37" style="edgeStyle=orthogonalEdgeStyle;rounded=0;orthogonalLoop=1;jettySize=auto;html=1;entryX=0;entryY=0.5;entryDx=0;entryDy=0;" edge="1" parent="WwLEg-Nevc-FDdVer2Dc-3" source="WwLEg-Nevc-FDdVer2Dc-21" target="WwLEg-Nevc-FDdVer2Dc-23">
          <mxGeometry relative="1" as="geometry">
            <Array as="points">
              <mxPoint x="420" y="120" />
              <mxPoint x="420" y="70" />
              <mxPoint x="410" y="70" />
              <mxPoint x="410" y="50" />
            </Array>
          </mxGeometry>
        </mxCell>
        <mxCell id="WwLEg-Nevc-FDdVer2Dc-28" style="edgeStyle=orthogonalEdgeStyle;rounded=0;orthogonalLoop=1;jettySize=auto;html=1;entryX=0;entryY=0.5;entryDx=0;entryDy=0;exitX=1;exitY=0.5;exitDx=0;exitDy=0;" edge="1" parent="WwLEg-Nevc-FDdVer2Dc-3" source="WwLEg-Nevc-FDdVer2Dc-8" target="WwLEg-Nevc-FDdVer2Dc-1">
          <mxGeometry relative="1" as="geometry" />
        </mxCell>
        <mxCell id="WwLEg-Nevc-FDdVer2Dc-40" style="edgeStyle=orthogonalEdgeStyle;rounded=0;orthogonalLoop=1;jettySize=auto;html=1;entryX=0;entryY=0.5;entryDx=0;entryDy=0;" edge="1" parent="WwLEg-Nevc-FDdVer2Dc-3" source="WwLEg-Nevc-FDdVer2Dc-25" target="WwLEg-Nevc-FDdVer2Dc-24">
          <mxGeometry relative="1" as="geometry" />
        </mxCell>
        <mxCell id="WwLEg-Nevc-FDdVer2Dc-63" style="edgeStyle=orthogonalEdgeStyle;rounded=0;orthogonalLoop=1;jettySize=auto;html=1;entryX=0;entryY=0.5;entryDx=0;entryDy=0;exitX=1;exitY=0.5;exitDx=0;exitDy=0;" edge="1" parent="WwLEg-Nevc-FDdVer2Dc-3" source="WwLEg-Nevc-FDdVer2Dc-59" target="WwLEg-Nevc-FDdVer2Dc-58">
          <mxGeometry relative="1" as="geometry">
            <Array as="points">
              <mxPoint x="840" y="120" />
              <mxPoint x="840" y="155" />
              <mxPoint x="760" y="155" />
              <mxPoint x="760" y="195" />
            </Array>
          </mxGeometry>
        </mxCell>
        <mxCell id="WwLEg-Nevc-FDdVer2Dc-20" value="" style="shape=mxgraph.bpmn.shape;html=1;verticalLabelPosition=bottom;labelBackgroundColor=#ffffff;verticalAlign=top;align=center;perimeter=rhombusPerimeter;background=gateway;outlineConnect=0;outline=none;symbol=exclusiveGw;fillColor=#fff2cc;strokeColor=#d6b656;" vertex="1" parent="WwLEg-Nevc-FDdVer2Dc-3">
          <mxGeometry x="170" y="110" width="50" height="50" as="geometry" />
        </mxCell>
        <mxCell id="WwLEg-Nevc-FDdVer2Dc-53" style="edgeStyle=orthogonalEdgeStyle;rounded=0;orthogonalLoop=1;jettySize=auto;html=1;exitX=1;exitY=0.5;exitDx=0;exitDy=0;entryX=0;entryY=0.5;entryDx=0;entryDy=0;" edge="1" parent="WwLEg-Nevc-FDdVer2Dc-3" source="WwLEg-Nevc-FDdVer2Dc-41" target="WwLEg-Nevc-FDdVer2Dc-50">
          <mxGeometry relative="1" as="geometry">
            <Array as="points">
              <mxPoint x="690" y="170" />
              <mxPoint x="690" y="120" />
              <mxPoint x="560" y="120" />
              <mxPoint x="560" y="70" />
            </Array>
          </mxGeometry>
        </mxCell>
        <mxCell id="WwLEg-Nevc-FDdVer2Dc-60" style="edgeStyle=orthogonalEdgeStyle;rounded=0;orthogonalLoop=1;jettySize=auto;html=1;entryX=0;entryY=0.5;entryDx=0;entryDy=0;exitX=0.5;exitY=0;exitDx=0;exitDy=0;" edge="1" parent="WwLEg-Nevc-FDdVer2Dc-3" source="WwLEg-Nevc-FDdVer2Dc-55" target="WwLEg-Nevc-FDdVer2Dc-59">
          <mxGeometry relative="1" as="geometry">
            <Array as="points">
              <mxPoint x="725" y="160" />
              <mxPoint x="700" y="160" />
              <mxPoint x="700" y="120" />
            </Array>
          </mxGeometry>
        </mxCell>
        <mxCell id="WwLEg-Nevc-FDdVer2Dc-92" value="" style="shape=plus;html=1;outlineConnect=0;" vertex="1" parent="WwLEg-Nevc-FDdVer2Dc-3">
          <mxGeometry x="763" y="136" width="14" height="14" as="geometry" />
        </mxCell>
        <mxCell id="WwLEg-Nevc-FDdVer2Dc-95" value="" style="shape=plus;html=1;outlineConnect=0;" vertex="1" parent="WwLEg-Nevc-FDdVer2Dc-3">
          <mxGeometry x="353" y="136" width="14" height="14" as="geometry" />
        </mxCell>
        <mxCell id="WwLEg-Nevc-FDdVer2Dc-41" value="Mengerjakan tugas" style="shape=ext;rounded=1;html=1;whiteSpace=wrap;fillColor=#dae8fc;strokeColor=#6c8ebf;" vertex="1" parent="WwLEg-Nevc-FDdVer2Dc-3">
          <mxGeometry x="570" y="140" width="100" height="60" as="geometry" />
        </mxCell>
        <mxCell id="WwLEg-Nevc-FDdVer2Dc-68" style="edgeStyle=orthogonalEdgeStyle;rounded=0;orthogonalLoop=1;jettySize=auto;html=1;entryX=0.5;entryY=0;entryDx=0;entryDy=0;" edge="1" parent="WwLEg-Nevc-FDdVer2Dc-3" source="WwLEg-Nevc-FDdVer2Dc-58" target="WwLEg-Nevc-FDdVer2Dc-9">
          <mxGeometry relative="1" as="geometry" />
        </mxCell>
        <mxCell id="WwLEg-Nevc-FDdVer2Dc-86" value="" style="shape=plus;html=1;outlineConnect=0;" vertex="1" parent="WwLEg-Nevc-FDdVer2Dc-3">
          <mxGeometry x="613" y="186" width="14" height="14" as="geometry" />
        </mxCell>
        <mxCell id="WwLEg-Nevc-FDdVer2Dc-58" value="Ngoding &amp;amp; belajar hal baru" style="shape=ext;rounded=1;html=1;whiteSpace=wrap;fillColor=#dae8fc;strokeColor=#6c8ebf;" vertex="1" parent="WwLEg-Nevc-FDdVer2Dc-3">
          <mxGeometry x="780" y="165" width="100" height="60" as="geometry" />
        </mxCell>
        <mxCell id="WwLEg-Nevc-FDdVer2Dc-55" value="" style="shape=mxgraph.bpmn.shape;html=1;verticalLabelPosition=bottom;labelBackgroundColor=#ffffff;verticalAlign=top;align=center;perimeter=rhombusPerimeter;background=gateway;outlineConnect=0;outline=none;symbol=parallelGw;fillColor=#fff2cc;strokeColor=#d6b656;" vertex="1" parent="WwLEg-Nevc-FDdVer2Dc-3">
          <mxGeometry x="700" y="170" width="50" height="50" as="geometry" />
        </mxCell>
        <mxCell id="WwLEg-Nevc-FDdVer2Dc-25" value="" style="shape=mxgraph.bpmn.shape;html=1;verticalLabelPosition=bottom;labelBackgroundColor=#ffffff;verticalAlign=top;align=center;perimeter=rhombusPerimeter;background=gateway;outlineConnect=0;outline=none;symbol=exclusiveGw;fillColor=#fff2cc;strokeColor=#d6b656;" vertex="1" parent="WwLEg-Nevc-FDdVer2Dc-3">
          <mxGeometry x="315" y="180" width="50" height="50" as="geometry" />
        </mxCell>
        <mxCell id="WwLEg-Nevc-FDdVer2Dc-46" style="edgeStyle=orthogonalEdgeStyle;rounded=0;orthogonalLoop=1;jettySize=auto;html=1;entryX=0;entryY=0.5;entryDx=0;entryDy=0;" edge="1" parent="WwLEg-Nevc-FDdVer2Dc-3" source="WwLEg-Nevc-FDdVer2Dc-42" target="WwLEg-Nevc-FDdVer2Dc-41">
          <mxGeometry relative="1" as="geometry">
            <Array as="points">
              <mxPoint x="455" y="215" />
              <mxPoint x="455" y="180" />
              <mxPoint x="540" y="180" />
              <mxPoint x="540" y="170" />
            </Array>
          </mxGeometry>
        </mxCell>
        <mxCell id="WwLEg-Nevc-FDdVer2Dc-47" style="edgeStyle=orthogonalEdgeStyle;rounded=0;orthogonalLoop=1;jettySize=auto;html=1;entryX=0;entryY=0.5;entryDx=0;entryDy=0;" edge="1" parent="WwLEg-Nevc-FDdVer2Dc-3" source="WwLEg-Nevc-FDdVer2Dc-42" target="WwLEg-Nevc-FDdVer2Dc-43">
          <mxGeometry relative="1" as="geometry">
            <Array as="points">
              <mxPoint x="455" y="215" />
              <mxPoint x="455" y="250" />
              <mxPoint x="520" y="250" />
              <mxPoint x="520" y="300" />
            </Array>
          </mxGeometry>
        </mxCell>
        <mxCell id="WwLEg-Nevc-FDdVer2Dc-42" value="" style="shape=mxgraph.bpmn.shape;html=1;verticalLabelPosition=bottom;labelBackgroundColor=#ffffff;verticalAlign=top;align=center;perimeter=rhombusPerimeter;background=gateway;outlineConnect=0;outline=none;symbol=parallelGw;fillColor=#fff2cc;strokeColor=#d6b656;" vertex="1" parent="WwLEg-Nevc-FDdVer2Dc-3">
          <mxGeometry x="430" y="190" width="50" height="50" as="geometry" />
        </mxCell>
        <mxCell id="WwLEg-Nevc-FDdVer2Dc-76" style="edgeStyle=orthogonalEdgeStyle;rounded=0;orthogonalLoop=1;jettySize=auto;html=1;entryX=0;entryY=0.5;entryDx=0;entryDy=0;dashed=1;endArrow=classic;endFill=0;exitX=0.5;exitY=0;exitDx=0;exitDy=0;" edge="1" parent="WwLEg-Nevc-FDdVer2Dc-3" source="WwLEg-Nevc-FDdVer2Dc-75" target="WwLEg-Nevc-FDdVer2Dc-21">
          <mxGeometry relative="1" as="geometry">
            <Array as="points">
              <mxPoint x="230" y="150" />
              <mxPoint x="280" y="150" />
              <mxPoint x="280" y="120" />
            </Array>
          </mxGeometry>
        </mxCell>
        <mxCell id="WwLEg-Nevc-FDdVer2Dc-75" value="" style="shape=message;whiteSpace=wrap;html=1;outlineConnect=0;fillColor=#000000;strokeColor=#ffffff;strokeWidth=2;" vertex="1" parent="WwLEg-Nevc-FDdVer2Dc-3">
          <mxGeometry x="210" y="205" width="40" height="30" as="geometry" />
        </mxCell>
        <mxCell id="WwLEg-Nevc-FDdVer2Dc-8" value="Start" style="shape=mxgraph.bpmn.shape;html=1;verticalLabelPosition=bottom;labelBackgroundColor=#ffffff;verticalAlign=top;align=center;perimeter=ellipsePerimeter;outlineConnect=0;outline=standard;symbol=general;fillColor=#d5e8d4;strokeColor=#82b366;" vertex="1" parent="WwLEg-Nevc-FDdVer2Dc-3">
          <mxGeometry x="40" y="195" width="50" height="50" as="geometry" />
        </mxCell>
        <mxCell id="WwLEg-Nevc-FDdVer2Dc-45" style="edgeStyle=orthogonalEdgeStyle;rounded=0;orthogonalLoop=1;jettySize=auto;html=1;entryX=0;entryY=0.5;entryDx=0;entryDy=0;exitX=1;exitY=0.5;exitDx=0;exitDy=0;" edge="1" parent="WwLEg-Nevc-FDdVer2Dc-3" source="WwLEg-Nevc-FDdVer2Dc-24" target="WwLEg-Nevc-FDdVer2Dc-42">
          <mxGeometry relative="1" as="geometry">
            <Array as="points">
              <mxPoint x="510" y="300" />
              <mxPoint x="510" y="260" />
              <mxPoint x="410" y="260" />
              <mxPoint x="410" y="215" />
            </Array>
          </mxGeometry>
        </mxCell>
        <mxCell id="WwLEg-Nevc-FDdVer2Dc-52" style="edgeStyle=orthogonalEdgeStyle;rounded=0;orthogonalLoop=1;jettySize=auto;html=1;" edge="1" parent="WwLEg-Nevc-FDdVer2Dc-3" source="WwLEg-Nevc-FDdVer2Dc-43" target="WwLEg-Nevc-FDdVer2Dc-49">
          <mxGeometry relative="1" as="geometry" />
        </mxCell>
        <mxCell id="WwLEg-Nevc-FDdVer2Dc-56" style="edgeStyle=orthogonalEdgeStyle;rounded=0;orthogonalLoop=1;jettySize=auto;html=1;entryX=0;entryY=0.5;entryDx=0;entryDy=0;exitX=1;exitY=0.5;exitDx=0;exitDy=0;" edge="1" parent="WwLEg-Nevc-FDdVer2Dc-3" source="WwLEg-Nevc-FDdVer2Dc-49" target="WwLEg-Nevc-FDdVer2Dc-55">
          <mxGeometry relative="1" as="geometry">
            <Array as="points">
              <mxPoint x="830" y="300" />
              <mxPoint x="830" y="260" />
              <mxPoint x="680" y="260" />
              <mxPoint x="680" y="195" />
            </Array>
          </mxGeometry>
        </mxCell>
        <mxCell id="WwLEg-Nevc-FDdVer2Dc-71" value="" style="shape=message;whiteSpace=wrap;html=1;outlineConnect=0;" vertex="1" parent="WwLEg-Nevc-FDdVer2Dc-3">
          <mxGeometry x="170" y="260" width="40" height="30" as="geometry" />
        </mxCell>
        <mxCell id="WwLEg-Nevc-FDdVer2Dc-9" value="End" style="shape=mxgraph.bpmn.shape;html=1;verticalLabelPosition=bottom;labelBackgroundColor=#ffffff;verticalAlign=top;align=center;perimeter=ellipsePerimeter;outlineConnect=0;outline=end;symbol=general;fillColor=#f8cecc;strokeColor=#b85450;" vertex="1" parent="WwLEg-Nevc-FDdVer2Dc-3">
          <mxGeometry x="900" y="260" width="50" height="50" as="geometry" />
        </mxCell>
        <mxCell id="WwLEg-Nevc-FDdVer2Dc-24" value="Ngoding &amp;amp; belajar hal baru" style="shape=ext;rounded=1;html=1;whiteSpace=wrap;fillColor=#dae8fc;strokeColor=#6c8ebf;" vertex="1" parent="WwLEg-Nevc-FDdVer2Dc-3">
          <mxGeometry x="390" y="270" width="100" height="60" as="geometry" />
        </mxCell>
        <mxCell id="WwLEg-Nevc-FDdVer2Dc-43" value="Makan" style="shape=ext;rounded=1;html=1;whiteSpace=wrap;fillColor=#dae8fc;strokeColor=#6c8ebf;" vertex="1" parent="WwLEg-Nevc-FDdVer2Dc-3">
          <mxGeometry x="540" y="270" width="100" height="60" as="geometry" />
        </mxCell>
        <mxCell id="WwLEg-Nevc-FDdVer2Dc-49" value="Menonton anime" style="shape=ext;rounded=1;html=1;whiteSpace=wrap;fillColor=#dae8fc;strokeColor=#6c8ebf;" vertex="1" parent="WwLEg-Nevc-FDdVer2Dc-3">
          <mxGeometry x="660" y="270" width="100" height="60" as="geometry" />
        </mxCell>
        <mxCell id="WwLEg-Nevc-FDdVer2Dc-31" style="edgeStyle=orthogonalEdgeStyle;rounded=0;orthogonalLoop=1;jettySize=auto;html=1;entryX=0.5;entryY=0;entryDx=0;entryDy=0;dashed=1;endArrow=classic;endFill=0;" edge="1" parent="WwLEg-Nevc-FDdVer2Dc-3" source="WwLEg-Nevc-FDdVer2Dc-20" target="WwLEg-Nevc-FDdVer2Dc-71">
          <mxGeometry relative="1" as="geometry">
            <Array as="points">
              <mxPoint x="195" y="210" />
              <mxPoint x="170" y="210" />
              <mxPoint x="170" y="240" />
              <mxPoint x="190" y="240" />
            </Array>
          </mxGeometry>
        </mxCell>
        <mxCell id="WwLEg-Nevc-FDdVer2Dc-90" value="" style="shape=plus;html=1;outlineConnect=0;" vertex="1" parent="WwLEg-Nevc-FDdVer2Dc-3">
          <mxGeometry x="703" y="316" width="14" height="14" as="geometry" />
        </mxCell>
        <mxCell id="WwLEg-Nevc-FDdVer2Dc-89" value="" style="shape=plus;html=1;outlineConnect=0;" vertex="1" parent="WwLEg-Nevc-FDdVer2Dc-3">
          <mxGeometry x="583" y="316" width="14" height="14" as="geometry" />
        </mxCell>
        <mxCell id="WwLEg-Nevc-FDdVer2Dc-4" value="Ibu" style="swimlane;html=1;startSize=20;horizontal=0;fillColor=#f5f5f5;strokeColor=#666666;fontColor=#333333;" vertex="1" parent="WwLEg-Nevc-FDdVer2Dc-2">
          <mxGeometry x="20" y="360" width="970" height="160" as="geometry" />
        </mxCell>
        <mxCell id="WwLEg-Nevc-FDdVer2Dc-78" value="" style="shape=mxgraph.bpmn.shape;html=1;verticalLabelPosition=bottom;labelBackgroundColor=#ffffff;verticalAlign=top;align=center;perimeter=ellipsePerimeter;outlineConnect=0;outline=standard;symbol=timer;fillColor=#e1d5e7;strokeColor=#9673a6;" vertex="1" parent="WwLEg-Nevc-FDdVer2Dc-4">
          <mxGeometry x="220" y="30" width="50" height="50" as="geometry" />
        </mxCell>
        <mxCell id="WwLEg-Nevc-FDdVer2Dc-79" style="edgeStyle=orthogonalEdgeStyle;rounded=0;orthogonalLoop=1;jettySize=auto;html=1;dashed=1;endArrow=classic;endFill=0;" edge="1" parent="WwLEg-Nevc-FDdVer2Dc-4" source="WwLEg-Nevc-FDdVer2Dc-19" target="WwLEg-Nevc-FDdVer2Dc-78">
          <mxGeometry relative="1" as="geometry" />
        </mxCell>
        <mxCell id="WwLEg-Nevc-FDdVer2Dc-19" value="Mencuci" style="shape=ext;rounded=1;html=1;whiteSpace=wrap;fillColor=#dae8fc;strokeColor=#6c8ebf;" vertex="1" parent="WwLEg-Nevc-FDdVer2Dc-4">
          <mxGeometry x="90" y="25" width="100" height="60" as="geometry" />
        </mxCell>
        <mxCell id="WwLEg-Nevc-FDdVer2Dc-84" value="" style="shape=plus;html=1;outlineConnect=0;" vertex="1" parent="WwLEg-Nevc-FDdVer2Dc-4">
          <mxGeometry x="133" y="71" width="14" height="14" as="geometry" />
        </mxCell>
        <mxCell id="WwLEg-Nevc-FDdVer2Dc-34" style="edgeStyle=orthogonalEdgeStyle;rounded=0;orthogonalLoop=1;jettySize=auto;html=1;entryX=0.5;entryY=1;entryDx=0;entryDy=0;endArrow=classic;endFill=0;dashed=1;" edge="1" parent="WwLEg-Nevc-FDdVer2Dc-2" source="WwLEg-Nevc-FDdVer2Dc-78" target="WwLEg-Nevc-FDdVer2Dc-75">
          <mxGeometry relative="1" as="geometry">
            <mxPoint x="330" y="410" as="sourcePoint" />
            <Array as="points">
              <mxPoint x="310" y="415" />
              <mxPoint x="310" y="268" />
              <mxPoint x="280" y="268" />
              <mxPoint x="280" y="290" />
              <mxPoint x="250" y="290" />
            </Array>
          </mxGeometry>
        </mxCell>
        <mxCell id="WwLEg-Nevc-FDdVer2Dc-74" style="edgeStyle=orthogonalEdgeStyle;rounded=0;orthogonalLoop=1;jettySize=auto;html=1;entryX=0;entryY=0.5;entryDx=0;entryDy=0;dashed=1;endArrow=classic;endFill=0;" edge="1" parent="WwLEg-Nevc-FDdVer2Dc-2" source="WwLEg-Nevc-FDdVer2Dc-71" target="WwLEg-Nevc-FDdVer2Dc-19">
          <mxGeometry relative="1" as="geometry" />
        </mxCell>
        <mxCell id="WwLEg-Nevc-FDdVer2Dc-80" style="edgeStyle=orthogonalEdgeStyle;rounded=0;orthogonalLoop=1;jettySize=auto;html=1;dashed=1;endArrow=classic;endFill=0;entryX=0.5;entryY=1;entryDx=0;entryDy=0;" edge="1" parent="1" source="WwLEg-Nevc-FDdVer2Dc-87" target="WwLEg-Nevc-FDdVer2Dc-24">
          <mxGeometry relative="1" as="geometry">
            <Array as="points" />
          </mxGeometry>
        </mxCell>
        <mxCell id="WwLEg-Nevc-FDdVer2Dc-69" value="Kuliah Daring" style="swimlane;html=1;startSize=20;horizontal=0;fillColor=#f5f5f5;strokeColor=#666666;fontColor=#333333;" vertex="1" parent="1">
          <mxGeometry x="40" y="680" width="990" height="160" as="geometry" />
        </mxCell>
        <mxCell id="WwLEg-Nevc-FDdVer2Dc-70" style="edgeStyle=orthogonalEdgeStyle;rounded=0;orthogonalLoop=1;jettySize=auto;html=1;entryX=0.5;entryY=0;entryDx=0;entryDy=0;dashed=1;endArrow=classic;endFill=0;" edge="1" parent="1" source="WwLEg-Nevc-FDdVer2Dc-25" target="WwLEg-Nevc-FDdVer2Dc-69">
          <mxGeometry relative="1" as="geometry" />
        </mxCell>
        <mxCell id="WwLEg-Nevc-FDdVer2Dc-87" value="" style="shape=plus;html=1;outlineConnect=0;" vertex="1" parent="1">
          <mxGeometry x="493" y="436" width="14" height="14" as="geometry" />
        </mxCell>
        <mxCell id="WwLEg-Nevc-FDdVer2Dc-88" style="edgeStyle=orthogonalEdgeStyle;rounded=0;orthogonalLoop=1;jettySize=auto;html=1;dashed=1;endArrow=classic;endFill=0;entryX=0.5;entryY=1;entryDx=0;entryDy=0;" edge="1" parent="1" source="WwLEg-Nevc-FDdVer2Dc-69" target="WwLEg-Nevc-FDdVer2Dc-87">
          <mxGeometry relative="1" as="geometry">
            <mxPoint x="790" y="680" as="sourcePoint" />
            <mxPoint x="500" y="450" as="targetPoint" />
            <Array as="points">
              <mxPoint x="790" y="565" />
              <mxPoint x="580" y="565" />
              <mxPoint x="580" y="490" />
              <mxPoint x="500" y="490" />
            </Array>
          </mxGeometry>
        </mxCell>
        <mxCell id="WwLEg-Nevc-FDdVer2Dc-96" value="&lt;b&gt;&lt;font style=&quot;font-size: 40px&quot;&gt;DAILY ROUTINE PROCESS&lt;br&gt;&lt;/font&gt;&lt;/b&gt;" style="text;html=1;align=center;verticalAlign=middle;resizable=0;points=[];autosize=1;" vertex="1" parent="1">
          <mxGeometry x="220" y="40" width="620" height="30" as="geometry" />
        </mxCell>
      </root>
    </mxGraphModel>
  </diagram>
</mxfile>
